<?xml version="1.0" standalone="no"?><!-- Generator: Adobe Fireworks CS6, Export SVG Extension by Aaron Beall (http://fireworks.abeall.com) . Version: 0.6.1  --><!DOCTYPE svg PUBLIC "-//W3C//DTD SVG 1.1//EN" "http://www.w3.org/Graphics/SVG/1.1/DTD/svg11.dtd"><svg id="mini%20for%20page%20action%2019px%20TOFtL_ICON512x512.fw%202-Page%201" viewBox="0 0 512 512" style="background-color:#ffffff00" version="1.1"	xmlns="http://www.w3.org/2000/svg" xmlns:xlink="http://www.w3.org/1999/xlink" xml:space="preserve"	x="0px" y="0px" width="512px" height="512px">	<defs>		<filter id="filter1" x="-100%" y="-100%" width="300%" height="300%">			<!-- Gloed -->			<feColorMatrix result="out" in="SourceGraphic" type="matrix" values="0 0 0 1 0  0 0 0 1 0  0 0 0 1 0  0 0 0 1 0"/>			<feMorphology result="out" in="out" operator="dilate" radius="14"/>			<feGaussianBlur result="out" in="out" stdDeviation="0"/>			<feBlend in="SourceGraphic" in2="out" mode="normal" result="Gloed1"/>		</filter>		<filter id="filter2" x="-100%" y="-100%" width="300%" height="300%">			<!-- Gloed -->			<feColorMatrix result="out" in="SourceGraphic" type="matrix" values="0 0 0 1 0  0 0 0 1 0  0 0 0 1 0  0 0 0 1 0"/>			<feMorphology result="out" in="out" operator="dilate" radius="14"/>			<feGaussianBlur result="out" in="out" stdDeviation="0"/>			<feBlend in="SourceGraphic" in2="out" mode="normal" result="Gloed2"/>		</filter>		<filter id="filter3" x="-100%" y="-100%" width="300%" height="300%">			<!-- Gloed -->			<feColorMatrix result="out" in="SourceGraphic" type="matrix" values="0 0 0 1 0  0 0 0 1 0  0 0 0 1 0  0 0 0 1 0"/>			<feMorphology result="out" in="out" operator="dilate" radius="14"/>			<feGaussianBlur result="out" in="out" stdDeviation="0"/>			<feBlend in="SourceGraphic" in2="out" mode="normal" result="Gloed3"/>		</filter>		<filter id="filter4" x="-100%" y="-100%" width="300%" height="300%">			<!-- Gloed -->			<feColorMatrix result="out" in="SourceGraphic" type="matrix" values="0 0 0 1 0  0 0 0 1 0  0 0 0 1 0  0 0 0 1 0"/>			<feMorphology result="out" in="out" operator="dilate" radius="14"/>			<feGaussianBlur result="out" in="out" stdDeviation="0"/>			<feBlend in="SourceGraphic" in2="out" mode="normal" result="Gloed4"/>		</filter>	</defs>	<g id="sticky">		<image visibility="hidden" x="52" y="0" width="408" height="512" xlink:href="a.svg.images/image1.png"/>		<path visibility="hidden" d="M -35 -24 L 586 -22 L 555 520 L -65 520 L -35 -24 Z" fill="#000000"/>		<path id="Ellipse" filter="url(#filter1)" d="M 75 185.3701 C 75 97.3513 156.0352 26 256 26 C 355.9648 26 437 97.3513 437 185.3701 C 437 273.3889 355.9648 344.7401 256 344.7401 C 156.0352 344.7401 75 273.3889 75 185.3701 Z" fill="#666666"/>		<g>			<g>				<path d="M 201.7 210.7244 L 223.42 210.7244 L 223.42 362.8504 L 201.7 362.8504 L 201.7 210.7244 Z" fill="#ffffff"/>				<path d="M 288.58 210.7244 L 310.3 210.7244 L 310.3 362.8504 L 288.58 362.8504 L 288.58 210.7244 Z" fill="#ffffff"/>				<path d="M 242.425 170.8819 C 219.9329 170.8819 201.7 189.1251 201.7 211.6299 L 224.0173 211.6299 C 226.4864 200.742 236.226 192.6142 247.855 192.6142 L 264.145 192.6142 C 275.774 192.6142 285.5135 200.742 287.9827 211.6299 L 310.3 211.6299 C 310.3 189.1251 292.0671 170.8819 269.575 170.8819 L 242.425 170.8819 Z" fill="#ffffff"/>				<path d="M 219.42 344.7401 L 292.58 344.7401 L 292.58 362.8504 L 219.42 362.8504 L 219.42 344.7401 Z" fill="#ffffff"/>			</g>		</g>		<path filter="url(#filter2)" d="M 183.6 464.27 L 183.6 486 L 328.4 486 L 328.4 464.27 L 350.12 464.2677 L 350.12 446.1574 L 161.88 446.1574 L 161.88 464.2677 L 183.6 464.27 Z" fill="#666666"/>		<rect filter="url(#filter3)" x="161.88" y="402.6929" width="188.24" height="18.1103" fill="#666666"/>		<rect filter="url(#filter4)" x="161.88" y="362.8504" width="188.24" height="18.1102" fill="#666666"/>	</g></svg>