<?xml version="1.0" standalone="no"?><!-- Generator: Adobe Fireworks CS6, Export SVG Extension by Aaron Beall (http://fireworks.abeall.com) . Version: 0.6.1  --><!DOCTYPE svg PUBLIC "-//W3C//DTD SVG 1.1//EN" "http://www.w3.org/Graphics/SVG/1.1/DTD/svg11.dtd"><svg id="colors%20mini%20for%20page%20action%2019px%20TOFtL_ICON512x512.fw%202-Page%201" viewBox="0 0 512 512" style="background-color:#ffffff00" version="1.1"	xmlns="http://www.w3.org/2000/svg" xmlns:xlink="http://www.w3.org/1999/xlink" xml:space="preserve"	x="0px" y="0px" width="512px" height="512px">	<defs>		<linearGradient id="gradient1" x1="50%" y1="100.2174%" x2="50%" y2="1.5491%">			<stop stop-color="#750087" stop-opacity="1" offset="0%"/>			<stop stop-color="#852c93" stop-opacity="1" offset="16.1616%"/>			<stop stop-color="#0044ff" stop-opacity="1" offset="16.6667%"/>			<stop stop-color="#0044ff" stop-opacity="1" offset="33.8384%"/>			<stop stop-color="#00811f" stop-opacity="1" offset="34.3434%"/>			<stop stop-color="#00811f" stop-opacity="1" offset="51%"/>			<stop stop-color="#ffef00" stop-opacity="1" offset="51.0101%"/>			<stop stop-color="#ffef00" stop-opacity="1" offset="69%"/>			<stop stop-color="#ff8c00" stop-opacity="1" offset="69.1919%"/>			<stop stop-color="#ff8c00" stop-opacity="1" offset="86.3636%"/>			<stop stop-color="#e70000" stop-opacity="1" offset="86.8687%"/>			<stop stop-color="#e70000" stop-opacity="1" offset="96.9697%"/>			<stop stop-color="#e70000" stop-opacity="1" offset="100%"/>		</linearGradient>	</defs>	<path d="M 161.88 362.8504 L 161.88 380.9606 L 350.12 380.9606 L 350.12 362.8504 L 161.88 362.8504 ZM 161.88 446.1574 L 161.88 464.2677 L 183.6 464.27 L 183.6 486 L 328.4 486 L 328.4 464.27 L 350.12 464.2677 L 350.12 446.1574 L 161.88 446.1574 ZM 161.88 402.6929 L 161.88 420.8031 L 350.12 420.8031 L 350.12 402.6929 L 161.88 402.6929 ZM 75 185.3701 C 75 273.3889 156.0352 344.7401 256 344.7401 C 355.9648 344.7401 437 273.3889 437 185.3701 C 437 97.3513 355.9648 26 256 26 C 156.0352 26 75 97.3513 75 185.3701 Z" fill="url(#gradient1)"/></svg>