<?xml version="1.0" encoding="utf-8"?>
<!-- Generator: Adobe Illustrator 21.0.2, SVG Export Plug-In . SVG Version: 6.00 Build 0)  -->
<svg version="1.1" id="Layer_1" xmlns="http://www.w3.org/2000/svg" xmlns:xlink="http://www.w3.org/1999/xlink" x="0px" y="0px"
	 viewBox="0 0 389.8 258.3" style="enable-background:new 0 0 389.8 258.3;" xml:space="preserve">
<style type="text/css">
	.st0{fill:#ffcf00;fill-opacity:0;}
	.st1{fill-opacity:0;stroke:#ffcf00;stroke-width:2;}
	.st2{fill:#ffcf00;}
	.st3{fill:#ffcf00;fill-opacity:0.6;}
	.st4{fill:#ffcf00;fill-opacity:0.7;}
	.st5{fill-opacity:0;stroke:#ffcf00;stroke-width:2;stroke-opacity:0.6;}
	.st6{display:none;fill:#ffcf00;fill-opacity:0.6;}
</style>
<path id="a3T7gSgDpA" class="st0" d="M28.7,141.5c0,1.4-1.1,2.5-2.5,2.5c-1.4,0-2.5-1.1-2.5-2.5c0-1.4,1.1-2.5,2.5-2.5
	C27.6,139,28.7,140.2,28.7,141.5z"/>
<path id="a3T7gSgDpA_1_" class="st1" d="M28.7,141.5c0,1.4-1.1,2.5-2.5,2.5c-1.4,0-2.5-1.1-2.5-2.5c0-1.4,1.1-2.5,2.5-2.5
	C27.6,139,28.7,140.2,28.7,141.5z"/>
<path id="a3rqobw86B" class="st2" d="M63.3,79.6L63.3,79.6L63.3,79.6L63.3,79.6L63.3,79.6L63.3,79.6L63.3,79.6L63.3,79.6L63.3,79.6
	L63.3,79.6L63.3,79.6L63.3,79.6L63.3,79.6L63.3,79.6L63.3,79.6L63.3,79.6L63.3,79.6L63.3,79.6L63.3,79.6L63.3,79.6L63.3,79.6
	L63.3,79.6L63.3,79.6l0.1,0.1v0l0,0v0h0v0l0,0v0l0,0l0,0v0l0,0v0l0,0v0l0,0v2.9h2.9l0,0h0l0,0h0h0l0,0l0,0l0,0h0l0,0h0v0h0l0,0l0,0
	l0,0h0v0h0l0,0v0h0v0l0,0h0v0l0,0l0,0l0,0v0l0,0v0h0v0v0l0,0v0l0,0v0l0,0v2.3v0v0l0,0v0l0,0v0l0,0l0,0l0,0v0v0l0,0l0,0l0,0l0,0l0,0
	l0,0v0h0v0l0,0h0v0h0l0,0l0,0l0,0h0l0,0l0,0l0,0h0l0,0h0v0h0h0l0,0h0l0,0h-2.9v2.9v0v0l0,0v0l0,0v0h0v0v0l0,0v0h0v0l0,0v0h0l0,0v0h0
	v0h0l0,0v0h0l0,0l0,0l0,0h0v0h0l0,0h0l0,0h0v0h0h0l0,0h0l0,0H61h0l0,0h0h0l0,0l0,0l0,0h0l0,0h0l0,0l0,0l0,0h0v0h0l0,0l0,0l0,0l0,0
	l0,0l0,0l0,0l0,0l0,0l0,0l0,0v0l0,0l0,0l0,0v0v0l0,0v0h0v0l0,0v0v0v-2.9H58h0h0l0,0h0l0,0l0,0l0,0h0l0,0h0v0h0l0,0h0v0h0l0,0l0,0
	l0,0h0v0l0,0l0,0l0,0v0h0l0,0v0l0,0l0,0v0l0,0v0l0,0v0h0v0l0,0v0v0v-2.3l0,0v0l0,0v0h0v0v0l0,0v0l0,0l0,0l0,0v0l0,0l0,0l0,0l0,0l0,0
	l0,0v0h0l0,0l0,0l0,0h0v0h0l0,0l0,0l0,0h0l0,0h0v0h0l0,0h0l0,0h0h0h2.9v-2.9l0,0v0l0,0v0h0v0v0l0,0v0l0,0l0,0l0,0v0l0,0l0,0l0,0v0h0
	l0,0l0,0l0,0v0h0l0,0l0,0l0,0h0l0,0l0,0l0,0h0l0,0h0v0h0l0,0h0h0l0,0h0H63.3L63.3,79.6L63.3,79.6z"/>
<path id="a3i3TBHvpT" class="st3" d="M299.8,97.1l2.6,2.6l-1.4,1.4l-2.5-2.6l-2.5,2.6l-1.4-1.4l2.6-2.6l-2.6-2.6l1.4-1.4l2.5,2.6
	l2.5-2.6l1.4,1.4L299.8,97.1z"/>
<path id="b1Cw3HZSy4" class="st2" d="M344.2,88.8L344.2,88.8L344.2,88.8L344.2,88.8L344.2,88.8L344.2,88.8L344.2,88.8L344.2,88.8
	L344.2,88.8L344.2,88.8L344.2,88.8L344.2,88.8L344.2,88.8L344.2,88.8L344.2,88.8L344.2,88.8L344.2,88.8L344.2,88.8L344.2,88.8
	L344.2,88.8l0.1,0.1l0,0v0h0v0l0,0v0h0v0l0,0v0l0,0l0,0l0,0v0l0,0v0v0l0,0v2.9h2.9l0,0h0l0,0h0h0l0,0h0v0h0l0,0h0l0,0l0,0l0,0h0v0h0
	l0,0v0h0l0,0l0,0l0,0v0h0v0l0,0v0h0v0l0,0v0h0v0l0,0v0l0,0v0v0l0,0v2.3v0l0,0v0l0,0v0v0l0,0l0,0l0,0v0l0,0l0,0l0,0v0l0,0l0,0l0,0v0
	h0l0,0l0,0l0,0l0,0l0,0l0,0h0v0h0l0,0h0v0h0l0,0h0l0,0h0h0v0h0l0,0h-2.9v2.9v0l0,0v0v0l0,0v0h0v0l0,0v0l0,0l0,0l0,0v0l0,0l0,0l0,0v0
	h0l0,0l0,0l0,0v0h0l0,0h0v0h0l0,0l0,0l0,0h0l0,0h0h0l0,0l0,0l0,0h0l0,0h-2.3h0h0l0,0l0,0l0,0h0l0,0h0l0,0h0v0h0l0,0l0,0l0,0h0l0,0
	l0,0l0,0l0,0l0,0l0,0l0,0l0,0v0h0v0l0,0v0h0v0l0,0v0l0,0v0h0v0v0l0,0v0v-2.9h-2.9h0h0v0h0l0,0h0l0,0h0l0,0l0,0h0l0,0h0v0l0,0h0v0h0
	l0,0l0,0l0,0l0,0l0,0l0,0v0h0v0l0,0v0h0v0l0,0v0l0,0l0,0v0l0,0v0l0,0v0V92l0,0v0v0l0,0v0h0v0l0,0v0l0,0l0,0l0,0v0l0,0l0,0l0,0v0h0v0
	l0,0h0v0h0l0,0l0,0l0,0l0,0l0,0l0,0h0h0l0,0l0,0l0,0h0l0,0h0l0,0h0h0h2.9v-2.9l0,0v0v0l0,0l0,0l0,0v0l0,0v0l0,0l0,0l0,0v0l0,0l0,0
	l0,0v0h0v0l0,0h0v0h0l0,0l0,0l0,0h0v0h0l0,0h0v0h0l0,0h0l0,0h0l0,0h0h0H344.2L344.2,88.8L344.2,88.8z"/>
<g>
	<g>
		<g>
			<path id="b387TzRjN" class="st4" d="M230,66.4h5v1.7h-5V66.4z"/>
		</g>
	</g>
	<g>
		<g>
			<path id="b3Pz8DlfVx" class="st4" d="M248.6,63.5h5v1.7h-5V63.5z"/>
		</g>
	</g>
	<g>
		<g>
			<path id="b7p8yE9bCx" class="st4" d="M243.8,53.9v5h-1.7v-5H243.8z"/>
		</g>
	</g>
	<g>
		<g>
			<path id="a1A7s7jtY9" class="st4" d="M240.8,72.6v5h-1.7v-5H240.8z"/>
		</g>
	</g>
	<g>
		<g>
			<path id="bWQmLypm7" class="st2" d="M245.8,69l5.3,4.8l-1.1,1.3l-5.3-4.8L245.8,69z"/>
		</g>
	</g>
	<g>
		<g>
			<path id="a6Ooopm1vE" class="st2" d="M244.9,61.5l5.1-5l1.2,1.2l-5,5L244.9,61.5z"/>
		</g>
	</g>
	<g>
		<g>
			<path id="h7zRW9Q6tP" class="st2" d="M231.9,74.1l5-5.1l1.2,1.2l-5.1,5.1L231.9,74.1z"/>
		</g>
	</g>
	<g>
		<g>
			<path id="bsNXie33o" class="st2" d="M232.9,55.9l5.3,4.8l-1.1,1.3l-5.3-4.8L232.9,55.9z"/>
		</g>
	</g>
</g>
<g>
	<g>
		<path id="e7z7DsqZIg" class="st0" d="M104.7,77.1c0,1.4-1.1,2.5-2.5,2.5s-2.5-1.1-2.5-2.5s1.1-2.5,2.5-2.5S104.7,75.7,104.7,77.1z
			"/>
	</g>
	<g>
		<g>
			<path id="e7z7DsqZIg_1_" class="st5" d="M104.7,77.1c0,1.4-1.1,2.5-2.5,2.5s-2.5-1.1-2.5-2.5s1.1-2.5,2.5-2.5
				S104.7,75.7,104.7,77.1z"/>
		</g>
	</g>
</g>
<g>
	<g>
		<path id="a54YjONuRf" class="st0" d="M250.6,194.1c0,1.4-1.1,2.5-2.5,2.5s-2.5-1.1-2.5-2.5c0-1.4,1.1-2.5,2.5-2.5
			S250.6,192.7,250.6,194.1z"/>
	</g>
	<g>
		<g>
			<path id="a54YjONuRf_1_" class="st5" d="M250.6,194.1c0,1.4-1.1,2.5-2.5,2.5s-2.5-1.1-2.5-2.5c0-1.4,1.1-2.5,2.5-2.5
				S250.6,192.7,250.6,194.1z"/>
		</g>
	</g>
</g>
<path id="d1sANB3sAK" class="st6" d="M310.4,161.8c0,59.4-48.3,107.7-107.7,107.7S95,221.2,95,161.8S143.3,54.1,202.7,54.1
	S310.4,102.3,310.4,161.8z"/>
<path id="aUIlDAYpW" class="st3" d="M50.2,187.1l2.5,2.6l-1.4,1.4l-2.6-2.5l-2.6,2.5l-1.4-1.4l2.6-2.6l-2.6-2.6l1.4-1.4l2.6,2.6
	l2.6-2.6l1.4,1.4L50.2,187.1z"/>
<path id="b1lQqJAkCa" class="st3" d="M287.5,194.1l2.6,2.5l-1.4,1.4l-2.5-2.6l-2.5,2.6l-1.4-1.4l2.6-2.5l-2.6-2.5l1.4-1.4l2.5,2.6
	l2.5-2.6l1.4,1.4L287.5,194.1z"/>
<path id="aFD49aWMy" class="st2" d="M279.5,213.3l2.5,2.6l-1.4,1.4l-2.6-2.6l-2.5,2.6l-1.4-1.4l2.5-2.6l-2.5-2.5l1.4-1.4l2.5,2.5
	l2.6-2.5l1.4,1.4L279.5,213.3z"/>
<polygon class="st2" points="73.9,101.2 82.9,119.5 103.1,122.4 88.5,136.6 91.9,156.7 73.9,147.2 55.9,156.7 59.3,136.6 
	44.7,122.4 64.9,119.5 "/>
<polygon class="st2" points="134.2,101.2 143.2,119.5 163.4,122.4 148.8,136.6 152.2,156.7 134.2,147.2 116.2,156.7 119.6,136.6 
	105.1,122.4 125.2,119.5 "/>
<polygon class="st2" points="194.5,101.2 203.6,119.5 223.7,122.4 209.1,136.6 212.6,156.7 194.5,147.2 176.5,156.7 180,136.6 
	165.4,122.4 185.5,119.5 "/>
<polygon class="st2" points="254.9,101.2 263.9,119.5 284,122.4 269.4,136.6 272.9,156.7 254.9,147.2 236.8,156.7 240.3,136.6 
	225.7,122.4 245.9,119.5 "/>
<polygon class="st2" points="315.5,101.2 324.5,119.5 344.7,122.4 330.1,136.6 333.5,156.7 315.5,147.2 297.5,156.7 300.9,136.6 
	286.4,122.4 306.5,119.5 "/>
<g>
	<g>
		<g>
			<path id="b387TzRjN_1_" class="st4" d="M104.7,190.8h5v1.7h-5V190.8z"/>
		</g>
	</g>
	<g>
		<g>
			<path id="b3Pz8DlfVx_1_" class="st4" d="M123.4,187.9h5v1.7h-5V187.9z"/>
		</g>
	</g>
	<g>
		<g>
			<path id="b7p8yE9bCx_1_" class="st4" d="M118.5,178.3v5h-1.7v-5H118.5z"/>
		</g>
	</g>
	<g>
		<g>
			<path id="a1A7s7jtY9_1_" class="st4" d="M115.6,197v5h-1.7v-5H115.6z"/>
		</g>
	</g>
	<g>
		<g>
			<path id="bWQmLypm7_1_" class="st2" d="M120.5,193.4l5.3,4.8l-1.1,1.3l-5.3-4.8L120.5,193.4z"/>
		</g>
	</g>
	<g>
		<g>
			<path id="a6Ooopm1vE_1_" class="st2" d="M119.6,185.9l5.1-5l1.2,1.2l-5,5L119.6,185.9z"/>
		</g>
	</g>
	<g>
		<g>
			<path id="h7zRW9Q6tP_1_" class="st2" d="M106.6,198.4l5-5l1.2,1.2l-5.1,5L106.6,198.4z"/>
		</g>
	</g>
	<g>
		<g>
			<path id="bsNXie33o_1_" class="st2" d="M107.6,180.3l5.3,4.8l-1.1,1.3l-5.3-4.8L107.6,180.3z"/>
		</g>
	</g>
</g>
</svg>
