<?xml version="1.0" encoding="utf-8"?>
<!-- Generator: Adobe Illustrator 24.1.0, SVG Export Plug-In . SVG Version: 6.00 Build 0)  -->
<svg version="1.1" xmlns="http://www.w3.org/2000/svg" xmlns:xlink="http://www.w3.org/1999/xlink" x="0px" y="0px"
	 viewBox="0 0 220 150" style="enable-background:new 0 0 220 150;" xml:space="preserve">
<style type="text/css">
	.st0{display:none;}
	.st1{display:inline;fill:#BC2822;stroke:#000000;stroke-miterlimit:10;}
	.st2{display:inline;fill-rule:evenodd;clip-rule:evenodd;fill:none;stroke:#000000;stroke-miterlimit:10;}
	.st3{fill:none;stroke:#000000;stroke-miterlimit:10;}
	.st4{font-family:'MyriadPro-Regular';}
	.st5{font-size:12px;}
</style>
<g id="background" class="st0">
	<rect class="st1" width="220" height="150"/>
</g>
<g id="ps_x5F_controller_x5F_v1" class="st0">
	<path class="st2" d="M110.1,53.1h27l8-7l7-30c0,0-1.2-4.5-3-7"/>
	<path class="st2" d="M110.1,53.1h-27l-8-7l-7-30c0,0,1.2-4.5,3-7"/>
	<path class="st2" d="M59.6,17.9L59.6,17.9C58,18.3,57,20,57.4,21.6l1.2,4.4c0.4,1.6,2.1,2.6,3.7,2.1l0,0c1.6-0.4,2.6-2.1,2.1-3.7
		L63.3,20C62.8,18.4,61.2,17.4,59.6,17.9z"/>
	<path class="st2" d="M161.5,17.8L161.5,17.8c1.6,0.4,2.6,2.1,2.2,3.7l-1.2,4.4c-0.4,1.6-2.1,2.6-3.7,2.1l0,0
		c-1.6-0.4-2.6-2.1-2.1-3.7l1.2-4.4C158.3,18.3,159.9,17.4,161.5,17.8z"/>
	<path class="st2" d="M106.6,85.1h7c0.8,0,1.5,0.7,1.5,1.5s-0.7,1.5-1.5,1.5h-7c-0.8,0-1.5-0.7-1.5-1.5S105.7,85.1,106.6,85.1z"/>
	<path class="st2" d="M104.4,61.1c0.8,0,1.5,0.7,1.5,1.5s-0.7,1.5-1.5,1.5s-1.5-0.7-1.5-1.5S103.5,61.1,104.4,61.1z"/>
	<path class="st2" d="M108.4,61.1c0.8,0,1.5,0.7,1.5,1.5s-0.7,1.5-1.5,1.5s-1.5-0.7-1.5-1.5S107.5,61.1,108.4,61.1z"/>
	<path class="st2" d="M112.4,61.1c0.8,0,1.5,0.7,1.5,1.5s-0.7,1.5-1.5,1.5s-1.5-0.7-1.5-1.5S111.5,61.1,112.4,61.1z"/>
	<path class="st2" d="M116.4,61.1c0.8,0,1.5,0.7,1.5,1.5s-0.7,1.5-1.5,1.5s-1.5-0.7-1.5-1.5S115.5,61.1,116.4,61.1z"/>
	<path class="st2" d="M118.6,58.1c0.8,0,1.5,0.7,1.5,1.5s-0.7,1.5-1.5,1.5s-1.5-0.7-1.5-1.5S117.7,58.1,118.6,58.1z"/>
	<path class="st2" d="M118.4,58.1c0.8,0,1.5,0.7,1.5,1.5s-0.7,1.5-1.5,1.5s-1.5-0.7-1.5-1.5S117.5,58.1,118.4,58.1z"/>
	<path class="st2" d="M114.4,58.1c0.8,0,1.5,0.7,1.5,1.5s-0.7,1.5-1.5,1.5s-1.5-0.7-1.5-1.5S113.5,58.1,114.4,58.1z"/>
	<path class="st2" d="M110.4,58.1c0.8,0,1.5,0.7,1.5,1.5s-0.7,1.5-1.5,1.5s-1.5-0.7-1.5-1.5S109.5,58.1,110.4,58.1z"/>
	<path class="st2" d="M106.4,58.1c0.8,0,1.5,0.7,1.5,1.5s-0.7,1.5-1.5,1.5s-1.5-0.7-1.5-1.5S105.5,58.1,106.4,58.1z"/>
	<path class="st2" d="M102.4,58.1c0.8,0,1.5,0.7,1.5,1.5s-0.7,1.5-1.5,1.5s-1.5-0.7-1.5-1.5S101.5,58.1,102.4,58.1z"/>
	<path class="st2" d="M161.6,39.1c4.1,0,7.5,3.4,7.5,7.5s-3.4,7.5-7.5,7.5c-4.1,0-7.5-3.4-7.5-7.5S157.4,39.1,161.6,39.1z"/>
	<path class="st2" d="M191.6,39.1c4.1,0,7.5,3.4,7.5,7.5s-3.4,7.5-7.5,7.5c-4.1,0-7.5-3.4-7.5-7.5S187.4,39.1,191.6,39.1z"/>
	<path class="st2" d="M176.6,54.1c4.1,0,7.5,3.4,7.5,7.5s-3.4,7.5-7.5,7.5c-4.1,0-7.5-3.4-7.5-7.5S172.4,54.1,176.6,54.1z"/>
	<path class="st2" d="M176.6,24.1c4.1,0,7.5,3.4,7.5,7.5s-3.4,7.5-7.5,7.5c-4.1,0-7.5-3.4-7.5-7.5S172.4,24.1,176.6,24.1z"/>
	<path class="st2" d="M171.1,108.2c2.3,10.9,11.1,32.1,15,35.9c1.9,1.8,7.3,1.7,12.1,0.8"/>
	<path class="st2" d="M152.1,9.1c1.3,1.5,3.1,3,3,5c-0.4,8.7-4.9,18.3-5,28c0,3.1-0.1,7,2,11c3.4,6.4,13.4,14.9,17,21
		c13.8,23.3,24.9,64.3,31.3,70.3"/>
	<path class="st2" d="M190.1,14.1v-2c0,0-10.4-7-14-7c-3.6,0-12,1-12,1l-2,4"/>
	<path class="st2" d="M110.2,97.1c0,0,32.8,0,33.9,0c0.4,0,4.3-0.6,4.3-0.6s6.8-1.2,9.7-0.4c7.8,1.8,10.5,7.5,12,10
		c1.5,2.5,13,30.8,18,38c2.2,3.2,14,0,14,0s8.7-4.9,11-13c4.2-14.7,3.3-41.1,3-43c-6.7-39.1-17.8-64.4-22-72c-2.7-4.8-43-7-43-7
		l-41-2"/>
	<path class="st2" d="M49.4,108.2c-2.3,10.9-11.1,32.1-15,35.9c-1.9,1.8-7.3,1.7-12.1,0.8"/>
	<path class="st2" d="M68.4,9.1c-1.3,1.5-3.1,3-3,5c0.4,8.7,4.9,18.3,5,28c0,3.1,0.1,7-2,11C65,59.4,55,68,51.4,74.1
		c-13.8,23.3-24.9,64.3-31.3,70.3"/>
	<path class="st2" d="M30.4,14.1v-2c0,0,10.4-7,14-7s12,1,12,1l2,4"/>
	<path class="st2" d="M110.2,97.1c0,0-32.8,0-33.9,0c-0.4,0-4.3-0.6-4.3-0.6s-6.8-1.2-9.7-0.4c-7.8,1.8-10.5,7.5-12,10
		c-1.5,2.5-13,30.8-18,38c-2.2,3.2-14,0-14,0s-8.7-4.9-11-13c-4.2-14.7-3.3-41.1-3-43c6.7-39.1,17.8-64.4,22-72c2.7-4.8,43-7,43-7
		l41-2"/>
	<path class="st2" d="M76.7,66.2c5.1,0,9.2,4.1,9.2,9.2c0,5.1-4.1,9.2-9.2,9.2s-9.2-4.1-9.2-9.2C67.5,70.3,71.6,66.2,76.7,66.2z"/>
	<path class="st2" d="M76.7,63.4c6.6,0,12,5.4,12,12s-5.4,12-12,12s-12-5.4-12-12S70.1,63.4,76.7,63.4z"/>
	<path class="st2" d="M144,66.2c5.1,0,9.2,4.1,9.2,9.2c0,5.1-4.1,9.2-9.2,9.2c-5.1,0-9.2-4.1-9.2-9.2C134.8,70.3,139,66.2,144,66.2z
		"/>
	<path class="st2" d="M144,63.4c6.6,0,12,5.4,12,12s-5.4,12-12,12s-12-5.4-12-12S137.4,63.4,144,63.4z"/>
	<path class="st2" d="M43.5,43.9l-5.6-5.3v-8.1c0-0.7,0.6-1.3,1.3-1.3h9.2c0.7,0,1.3,0.6,1.3,1.3v8.1l-5.6,5.3
		C43.8,44,43.6,44,43.5,43.9z"/>
	<path class="st2" d="M43.9,49.3l5.6,5.3v8.1c0,0.7-0.6,1.3-1.3,1.3h-9.2c-0.7,0-1.3-0.6-1.3-1.3v-8.1l5.6-5.3
		C43.6,49.2,43.8,49.2,43.9,49.3z"/>
	<path class="st2" d="M46.4,46.4l5.3-5.6h8.1c0.7,0,1.3,0.6,1.3,1.3v9.2c0,0.7-0.6,1.3-1.3,1.3h-8.1l-5.3-5.6
		C46.3,46.7,46.3,46.5,46.4,46.4z"/>
	<path class="st2" d="M41,46.8l-5.3,5.6h-8.1c-0.7,0-1.3-0.6-1.3-1.3V42c0-0.7,0.6-1.3,1.3-1.3h8.1l5.3,5.6
		C41.1,46.5,41.1,46.7,41,46.8z"/>
</g>
<g id="xbox_x5F_controller_x5F_v1">
	<circle class="st3" cx="148.2" cy="43.6" r="7.3"/>
	<circle class="st3" cx="174.9" cy="44.1" r="7.3"/>
	<circle class="st3" cx="161.3" cy="57.7" r="7.3"/>
	<circle class="st3" cx="161.8" cy="31" r="7.3"/>
	<path class="st3" d="M190.9,143.9c-5.1,1-19.1-16-28.9-28.8c-3.7-4.8-9-8.4-13.5-9.2"/>
	<path class="st3" d="M110,9.7c21,0,33.5-0.5,43.4,1.4c10.6,2,17.4,3.4,24.1,8.8c4.9,3.9,7.5,8.1,16.1,31.8c0,0,10.8,27.2,15.1,51.5
		c0.9,4.8,1.5,15.5,0.6,21.9c-0.4,2.9-3.5,14.2-12.7,17.6c-1.2,0.5-3.7,1.7-6.8,1c-2-0.5-11.3-14.4-25-28.1
		c-2.6-2.6-8.9-9.7-15.3-9.7c-9.2,0-16.6,0.3-39.6,0.3"/>
	<path class="st3" d="M110,103.6c0,0,28.2,0,29.4,0c9,0,12.9,2.6,14.2,3"/>
	<path class="st3" d="M178.6,20.7c-1.5-3.6-8.5-9.7-11.5-11c-7.2-3-17.3-4.4-20.9-3.2c-1.9,0.6-2.9,1.5-3.9,3.4"/>
	<circle class="st3" cx="136.7" cy="74.3" r="7.3"/>
	<circle class="st3" cx="136.7" cy="74.3" r="11.1"/>
	<circle class="st3" cx="136.7" cy="74.3" r="13.5"/>
	<circle class="st3" cx="124.8" cy="43.6" r="4.8"/>
	<circle class="st3" cx="95.3" cy="43.6" r="4.8"/>
	<path class="st3" d="M113.4,57.7h-6.7c-1.3,0-2.4-1.1-2.4-2.4v-1.6c0-1.3,1.1-2.4,2.4-2.4h6.7c1.3,0,2.4,1.1,2.4,2.4v1.6
		C115.7,56.6,114.7,57.7,113.4,57.7z"/>
	<circle class="st3" cx="83" cy="77" r="16.2"/>
	<path class="st3" d="M85.7,91.8h-5.3c-1,0-1.8-0.8-1.8-1.8V64c0-1,0.8-1.8,1.8-1.8h5.4c1,0,1.8,0.8,1.8,1.8v25.9
		C87.5,91,86.7,91.8,85.7,91.8z"/>
	<circle class="st3" cx="58.8" cy="45.9" r="7.3"/>
	<circle class="st3" cx="58.8" cy="45.9" r="11.1"/>
	<circle class="st3" cx="58.8" cy="45.9" r="13.5"/>
	<circle class="st3" cx="110" cy="24.1" r="7.7"/>
	<path class="st3" d="M116.7,28c-1.2-1.5-2.6-3-4.1-4.5c-1.1-1.1-2-1.9-2.6-2.4c-1.5-1.3-2.8-2.4-3.9-3.3"/>
	<path class="st3" d="M103.3,28c1.2-1.5,2.6-3,4.1-4.5c1.1-1.1,2-1.9,2.6-2.4c1.5-1.3,2.8-2.4,3.9-3.3"/>
	<path class="st3" d="M29.1,143.9c5.1,1,19.1-16,28.9-28.8c3.7-4.8,9-8.4,13.5-9.2"/>
	<path class="st3" d="M110,9.7c-21,0-33.5-0.5-43.4,1.4c-10.6,2-17.4,3.4-24.1,8.8c-4.9,3.9-7.5,8.1-16.1,31.8
		c0,0-10.8,27.2-15.1,51.5c-0.9,4.8-1.5,15.5-0.6,21.9c0.4,2.9,3.5,14.2,12.7,17.6c1.2,0.5,3.7,1.7,6.8,1c2-0.5,11.3-14.4,25-28.1
		c2.6-2.6,8.9-9.7,15.3-9.7c9.2,0,16.6,0.3,39.6,0.3"/>
	<path class="st3" d="M110,103.6c0,0-28.2,0-29.4,0c-9,0-12.9,2.6-14.2,3"/>
	<path class="st3" d="M41.4,20.7c1.5-3.6,8.5-9.7,11.5-11c7.2-3,17.3-4.4,20.9-3.2c1.9,0.6,2.9,1.5,3.9,3.4"/>
	<text transform="matrix(1 0 0 1 157.6228 61.4959)" class="st4 st5">A</text>
	<text transform="matrix(1 0 0 1 144.7575 48.159)" class="st4 st5">X</text>
	<text transform="matrix(1 0 0 1 172.1582 48.4259)" class="st4 st5">B</text>
	<text transform="matrix(1 0 0 1 158.5219 34.775)" class="st4 st5">Y</text>
	<path class="st3" d="M97.9,74.4v5.3c0,1-0.8,1.8-1.8,1.8H70c-1,0-1.8-0.8-1.8-1.8v-5.4c0-1,0.8-1.8,1.8-1.8H96
		C97,72.5,97.9,73.4,97.9,74.4z"/>
</g>
</svg>
